<svg xmlns="http://www.w3.org/2000/svg" width="44" height="44" viewBox="0 0 44 44" fill="none">
  <g clip-path="url(#clip0_168_916)">
    <path d="M21.9797 26L12.7598 35.24L15.4197 37.8401L19.1997 34.04L19.9997 32.0201V44H23.9997V32.04L24.7197 33.98L28.5797 37.8401L31.1997 35.22L21.9797 26Z" fill="white"/>
    <path d="M32.0201 20.0002H44V24.0002H32.04L33.98 24.7202L37.8401 28.5802L35.22 31.2002L26 21.9802L35.24 12.7603L37.8401 15.4202L34.04 19.2002L32.0201 20.0002Z" fill="white"/>
    <path d="M6.16004 15.4202L8.76001 12.7603L18 21.9802L8.77997 31.2002L6.16004 28.5802L10.02 24.7202L11.96 24.0002H0V20.0002H11.98L9.96001 19.2002L6.16004 15.4202Z" fill="white"/>
    <path d="M24.7197 10.02L28.5797 6.16004L31.1997 8.77997L21.9797 18L12.7598 8.76001L15.4197 6.16004L19.1997 9.96001L19.9997 11.98V0H23.9997V11.96L24.7197 10.02Z" fill="white"/>
  </g>
  <defs>
    <clipPath id="clip0_168_916">
      <rect width="44" height="44" fill="white"/>
    </clipPath>
  </defs>
</svg>