<svg xmlns="http://www.w3.org/2000/svg" width="95" height="36" viewBox="0 0 95 36" fill="none">
  <path d="M9.24891 0.959619H12.7473V10.4197C12.7473 11.513 12.49 12.4655 11.9754 13.2771C11.4608 14.0839 10.7432 14.7094 9.82254 15.1534C8.9019 15.5926 7.83253 15.8122 6.61446 15.8122C5.38221 15.8122 4.30577 15.5926 3.38513 15.1534C2.46449 14.7094 1.74922 14.0839 1.23933 13.2771C0.729431 12.4655 0.474485 11.513 0.474485 10.4197V0.959619H3.98V10.1118C3.98 10.6179 4.08859 11.069 4.30577 11.4653C4.52767 11.8615 4.83691 12.1719 5.23349 12.3963C5.63008 12.6206 6.0904 12.7328 6.61446 12.7328C7.13851 12.7328 7.59647 12.6206 7.98834 12.3963C8.38492 12.1719 8.69416 11.8615 8.91606 11.4653C9.13796 11.069 9.24891 10.6179 9.24891 10.1118V0.959619Z" fill="white"/>
  <path d="M18.8064 9.3527V15.626H15.3433V4.62622H18.6364V6.64571H18.7568C18.9976 5.97255 19.4083 5.445 19.989 5.06306C20.5698 4.67635 21.2614 4.48299 22.064 4.48299C22.8289 4.48299 23.4922 4.65725 24.054 5.00577C24.6206 5.34951 25.0596 5.83171 25.3713 6.45236C25.6876 7.06823 25.8434 7.78914 25.8387 8.61508V15.626H22.3756V9.30257C22.3803 8.69147 22.2269 8.21404 21.9153 7.8703C21.6084 7.52656 21.1812 7.35469 20.6335 7.35469C20.27 7.35469 19.9489 7.43585 19.6704 7.59817C19.3965 7.75572 19.1841 7.98249 19.033 8.2785C18.8866 8.5745 18.8111 8.93256 18.8064 9.3527Z" fill="white"/>
  <path d="M28.3815 15.626V4.62622H31.8446V15.626H28.3815ZM30.1166 3.34434C29.6303 3.34434 29.2125 3.18202 28.8631 2.85737C28.5137 2.52795 28.339 2.13169 28.339 1.66859C28.339 1.21026 28.5137 0.818779 28.8631 0.494132C29.2125 0.164711 29.6303 0 30.1166 0C30.6076 0 31.0254 0.164711 31.3701 0.494132C31.7194 0.818779 31.8941 1.21026 31.8941 1.66859C31.8941 2.13169 31.7194 2.52795 31.3701 2.85737C31.0254 3.18202 30.6076 3.34434 30.1166 3.34434Z" fill="white"/>
  <path d="M44.9996 4.62622L41.2675 15.626H37.3016L33.5766 4.62622H37.2237L39.2279 12.2029H39.3412L41.3525 4.62622H44.9996Z" fill="white"/>
  <path d="M51.4605 15.8337C50.3227 15.8337 49.3407 15.6069 48.5145 15.1534C47.693 14.695 47.0603 14.0434 46.6165 13.1983C46.1775 12.3485 45.9579 11.3388 45.9579 10.1691C45.9579 9.03282 46.1798 8.03979 46.6236 7.18997C47.0674 6.33539 47.693 5.67177 48.5003 5.19912C49.3076 4.7217 50.259 4.48299 51.3543 4.48299C52.1286 4.48299 52.8368 4.60474 53.4789 4.84822C54.1209 5.09171 54.6757 5.45216 55.1431 5.92958C55.6105 6.407 55.974 6.99662 56.2337 7.69843C56.4934 8.39546 56.6232 9.19515 56.6232 10.0975V10.9712H47.1689V8.93734H53.401C53.3962 8.56495 53.3089 8.23314 53.1389 7.94191C52.969 7.65069 52.7353 7.42391 52.4378 7.26159C52.1451 7.09449 51.8075 7.01094 51.4251 7.01094C51.038 7.01094 50.691 7.09926 50.3841 7.27591C50.0772 7.44778 49.8341 7.68411 49.6547 7.98488C49.4753 8.28088 49.3808 8.61747 49.3714 8.99463V11.0643C49.3714 11.513 49.4587 11.9069 49.6334 12.2459C49.8081 12.5801 50.056 12.8403 50.377 13.0265C50.6981 13.2127 51.0805 13.3057 51.5243 13.3057C51.8312 13.3057 52.1097 13.2628 52.3599 13.1768C52.6101 13.0909 52.825 12.9644 53.0044 12.7973C53.1838 12.6302 53.3183 12.4249 53.408 12.1814L56.5878 12.2745C56.4556 12.9954 56.1652 13.6232 55.7167 14.1579C55.2729 14.6879 54.6899 15.1009 53.9675 15.3969C53.2452 15.6881 52.4095 15.8337 51.4605 15.8337Z" fill="white"/>
  <path d="M58.7908 15.626V4.62622H62.1546V6.63139H62.2679C62.4662 5.90571 62.7896 5.36622 63.2382 5.01293C63.6867 4.65486 64.2084 4.47583 64.8032 4.47583C64.9638 4.47583 65.129 4.48777 65.299 4.51164C65.4689 4.53073 65.6271 4.56177 65.7735 4.60474V7.6483C65.6082 7.59101 65.391 7.54565 65.1219 7.51223C64.8575 7.47882 64.6215 7.46211 64.4137 7.46211C64.003 7.46211 63.6324 7.5552 63.3019 7.7414C62.9761 7.92282 62.7188 8.17824 62.53 8.50766C62.3458 8.83231 62.2538 9.21424 62.2538 9.65347V15.626H58.7908Z" fill="white"/>
  <path d="M77.0801 7.98488L73.9004 8.07082C73.8673 7.84166 73.7776 7.63875 73.6313 7.46211C73.4849 7.28068 73.2937 7.13985 73.0577 7.03959C72.8263 6.93455 72.5572 6.88204 72.2503 6.88204C71.849 6.88204 71.5067 6.9632 71.2234 7.12552C70.9449 7.28785 70.808 7.50746 70.8127 7.78436C70.808 7.9992 70.893 8.1854 71.0676 8.34295C71.2471 8.5005 71.5657 8.62702 72.0237 8.7225L74.1199 9.12353C75.2058 9.3336 76.0131 9.68212 76.5419 10.1691C77.0754 10.6561 77.3445 11.3006 77.3493 12.1026C77.3445 12.857 77.1226 13.5134 76.6836 14.072C76.2492 14.6306 75.6543 15.0651 74.8989 15.3754C74.1435 15.6809 73.2795 15.8337 72.307 15.8337C70.7537 15.8337 69.5285 15.5114 68.6315 14.8669C67.7392 14.2176 67.2293 13.3487 67.1018 12.2602L70.5223 12.1743C70.5979 12.5753 70.7938 12.8808 71.1101 13.0909C71.4265 13.301 71.8301 13.406 72.3211 13.406C72.7649 13.406 73.1261 13.3225 73.4047 13.1554C73.6832 12.9883 73.8249 12.7663 73.8296 12.4894C73.8249 12.2411 73.7163 12.043 73.5038 11.895C73.2914 11.7422 72.9585 11.6228 72.5053 11.5369L70.6073 11.1717C69.5167 10.9712 68.7047 10.6012 68.1712 10.0617C67.6377 9.51741 67.3733 8.82514 67.378 7.98488C67.3733 7.24965 67.5668 6.62184 67.9587 6.10145C68.3506 5.57629 68.9077 5.17525 69.63 4.89835C70.3524 4.62144 71.2046 4.48299 72.1866 4.48299C73.6596 4.48299 74.821 4.7957 75.6709 5.42113C76.5207 6.04177 76.9904 6.89636 77.0801 7.98488Z" fill="white"/>
  <path d="M82.5195 15.8122C81.8255 15.8122 81.2094 15.6952 80.6711 15.4613C80.1376 15.2226 79.7151 14.8645 79.4035 14.3871C79.0966 13.9049 78.9432 13.301 78.9432 12.5753C78.9432 11.9642 79.0494 11.4486 79.2618 11.0284C79.4743 10.6083 79.767 10.267 80.14 10.0044C80.513 9.7418 80.9426 9.54366 81.4289 9.40999C81.9152 9.27153 82.4345 9.17844 82.9869 9.13069C83.6054 9.0734 84.1035 9.01373 84.4812 8.95166C84.8589 8.88482 85.1327 8.79173 85.3027 8.67237C85.4774 8.54824 85.5647 8.37398 85.5647 8.14959V8.11379C85.5647 7.74617 85.4396 7.46211 85.1894 7.26159C84.9391 7.06107 84.6016 6.96081 84.1767 6.96081C83.7187 6.96081 83.3504 7.06107 83.0719 7.26159C82.7933 7.46211 82.6163 7.73901 82.5407 8.0923L79.3468 7.97772C79.4413 7.30933 79.6844 6.71255 80.0763 6.18739C80.4729 5.65745 81.0158 5.24209 81.7051 4.94132C82.3991 4.63577 83.2324 4.48299 84.205 4.48299C84.899 4.48299 85.5387 4.56654 86.1242 4.73364C86.7096 4.89596 87.2195 5.13467 87.6539 5.44977C88.0882 5.7601 88.4234 6.14203 88.6595 6.59558C88.9003 7.04914 89.0207 7.56714 89.0207 8.14959V15.626H85.763V14.0935H85.678C85.4844 14.4659 85.2366 14.781 84.9344 15.0388C84.637 15.2966 84.2852 15.49 83.8792 15.6189C83.4779 15.7478 83.0247 15.8122 82.5195 15.8122ZM83.5889 13.5206C83.9618 13.5206 84.2971 13.4442 84.5945 13.2914C84.8967 13.1387 85.1374 12.9286 85.3168 12.6612C85.4963 12.3891 85.586 12.074 85.586 11.7159V10.6704C85.4868 10.7229 85.3664 10.7706 85.2248 10.8136C85.0879 10.8566 84.9368 10.8972 84.7715 10.9353C84.6063 10.9735 84.4363 11.007 84.2616 11.0356C84.087 11.0643 83.9194 11.0905 83.7588 11.1144C83.4331 11.1669 83.1545 11.2481 82.9232 11.3579C82.6966 11.4677 82.5219 11.6109 82.3991 11.7875C82.2811 11.9594 82.2221 12.1647 82.2221 12.4034C82.2221 12.7663 82.3495 13.0432 82.6045 13.2341C82.8642 13.4251 83.1923 13.5206 83.5889 13.5206Z" fill="white"/>
  <path d="M95 0.959619V15.626H91.537V0.959619H95Z" fill="white"/>
  <path d="M0 24.0048V21.1259H12.2587V24.0048H7.86086V35.7923H4.40492V24.0048H0Z" fill="white"/>
  <path d="M19.9076 31.0444V24.7925H23.3635V35.7923H20.0634V33.7442H19.9501C19.7093 34.4173 19.2986 34.9521 18.7178 35.3483C18.1419 35.7398 17.4455 35.9356 16.6287 35.9356C15.8875 35.9356 15.2359 35.7637 14.6741 35.4199C14.1123 35.0762 13.6756 34.5964 13.364 33.9805C13.0524 33.3599 12.8942 32.6342 12.8895 31.8035V24.7925H16.3525V31.116C16.3572 31.7128 16.513 32.183 16.8199 32.5268C17.1268 32.8705 17.5446 33.0424 18.0734 33.0424C18.418 33.0424 18.7273 32.966 19.0011 32.8132C19.2797 32.6557 19.4992 32.4289 19.6597 32.1329C19.825 31.8321 19.9076 31.4693 19.9076 31.0444Z" fill="white"/>
  <path d="M32.1066 24.7925V27.3706H25.2443V24.7925H32.1066ZM26.6819 22.1572H30.1449V32.3334C30.1449 32.5482 30.178 32.7225 30.2441 32.8562C30.3149 32.9851 30.4164 33.0782 30.5486 33.1355C30.6808 33.188 30.8389 33.2142 31.0231 33.2142C31.1553 33.2142 31.2945 33.2023 31.4409 33.1784C31.592 33.1498 31.7053 33.1259 31.7808 33.1068L32.3049 35.6348C32.1396 35.6825 31.9059 35.7422 31.6038 35.8138C31.3063 35.8854 30.9499 35.9308 30.5344 35.9499C29.7224 35.9881 29.026 35.8926 28.4453 35.6634C27.8693 35.4295 27.4278 35.0666 27.121 34.5749C26.8188 34.0831 26.6724 33.4649 26.6819 32.7201V22.1572Z" fill="white"/>
  <path d="M39.2332 36C38.0907 36 37.1087 35.7637 36.2872 35.291C35.4704 34.8136 34.8401 34.15 34.3963 33.3002C33.9572 32.4456 33.7377 31.4549 33.7377 30.3282C33.7377 29.1967 33.9572 28.2061 34.3963 27.3563C34.8401 26.5017 35.4704 25.8381 36.2872 25.3654C37.1087 24.888 38.0907 24.6493 39.2332 24.6493C40.3757 24.6493 41.3554 24.888 42.1722 25.3654C42.9937 25.8381 43.624 26.5017 44.063 27.3563C44.5068 28.2061 44.7287 29.1967 44.7287 30.3282C44.7287 31.4549 44.5068 32.4456 44.063 33.3002C43.624 34.15 42.9937 34.8136 42.1722 35.291C41.3554 35.7637 40.3757 36 39.2332 36ZM39.2545 33.3575C39.6699 33.3575 40.0217 33.2286 40.3097 32.9708C40.5976 32.713 40.8172 32.3549 40.9683 31.8966C41.1241 31.4382 41.202 30.9083 41.202 30.3067C41.202 29.6956 41.1241 29.1609 40.9683 28.7026C40.8172 28.2443 40.5976 27.8862 40.3097 27.6284C40.0217 27.3706 39.6699 27.2417 39.2545 27.2417C38.8248 27.2417 38.4613 27.3706 38.1638 27.6284C37.8711 27.8862 37.6469 28.2443 37.4911 28.7026C37.34 29.1609 37.2645 29.6956 37.2645 30.3067C37.2645 30.9083 37.34 31.4382 37.4911 31.8966C37.6469 32.3549 37.8711 32.713 38.1638 32.9708C38.4613 33.2286 38.8248 33.3575 39.2545 33.3575Z" fill="white"/>
  <path d="M46.9016 35.7923V24.7925H50.2655V26.7977H50.3788C50.5771 26.072 50.9005 25.5325 51.349 25.1792C51.7975 24.8212 52.3192 24.6421 52.9141 24.6421C53.0746 24.6421 53.2398 24.6541 53.4098 24.6779C53.5798 24.697 53.7379 24.7281 53.8843 24.771V27.8146C53.7191 27.7573 53.5019 27.712 53.2328 27.6785C52.9684 27.6451 52.7323 27.6284 52.5246 27.6284C52.1138 27.6284 51.7432 27.7215 51.4127 27.9077C51.087 28.0891 50.8297 28.3445 50.6408 28.674C50.4567 28.9986 50.3646 29.3805 50.3646 29.8198V35.7923H46.9016Z" fill="white"/>
</svg>