<svg xmlns="http://www.w3.org/2000/svg" width="64" height="64" viewBox="0 0 64 64" fill="none">
  <path d="M51.6695 33.1094L23.4055 51.952C23.2047 52.0856 22.9714 52.1623 22.7305 52.1738C22.4896 52.1853 22.2501 52.1313 22.0375 52.0175C21.8249 51.9036 21.6471 51.7342 21.5231 51.5274C21.3992 51.3205 21.3336 51.0839 21.3335 50.8427V13.1574C21.3336 12.9162 21.3992 12.6795 21.5231 12.4727C21.6471 12.2658 21.8249 12.0964 22.0375 11.9826C22.2501 11.8687 22.4896 11.8147 22.7305 11.8262C22.9714 11.8378 23.2047 11.9144 23.4055 12.048L51.6695 30.8907C51.8521 31.0124 52.0018 31.1774 52.1054 31.3709C52.2089 31.5644 52.2631 31.7805 52.2631 32C52.2631 32.2195 52.2089 32.4356 52.1054 32.6291C52.0018 32.8226 51.8521 32.9876 51.6695 33.1094Z" fill="#FFA763"/>
</svg>